<?xml version="1.0" encoding="UTF-8"?>
<svg width="33px" height="30px" viewBox="0 0 33 30" version="1.1" xmlns="http://www.w3.org/2000/svg" xmlns:xlink="http://www.w3.org/1999/xlink">
    <!-- Generator: Sketch 48.2 (47327) - http://www.bohemiancoding.com/sketch -->
    <title>Group 19</title>
    <desc>Created with Sketch.</desc>
    <defs></defs>
    <g id="Become-A-Nanny-Share-Host" stroke="none" stroke-width="1" fill="white" fill-rule="evenodd" transform="translate(-587.000000, -3275.000000)">
        <g id="FOOTER" transform="translate(0.000000, 3073.000000)" fill="#FFFFFF">
            <g id="Group-5">
                <g id="Main-CTA-Copy" transform="translate(553.000000, 182.000000)">
                    <g id="Group-38" transform="translate(34.938773, 20.000000)">
                        <g id="Group-19">
                            <path d="M1.32343836,28.75 L30.4390823,28.75 L30.4390823,10 L1.32343836,10 L1.32343836,28.75 Z M5.29375344,3.75 L5.29375344,5.625 C5.29375344,6 5.59020363,6.25 5.95547262,6.25 L9.9257877,6.25 C10.2917184,6.25 10.5875069,6 10.5875069,5.625 L10.5875069,3.75 L21.1750138,3.75 L21.1750138,5.625 C21.1750138,6 21.471464,6.25 21.8367329,6.25 L25.807048,6.25 C26.1729787,6.25 26.4687672,6 26.4687672,5.625 L26.4687672,3.75 L30.4390823,3.75 L30.4390823,8.75 L1.32343836,8.75 L1.32343836,3.75 L5.29375344,3.75 Z M6.6171918,5 L9.26406852,5 L9.26406852,1.25 L6.6171918,1.25 L6.6171918,5 Z M22.4984521,5 L25.1453288,5 L25.1453288,1.25 L22.4984521,1.25 L22.4984521,5 Z M31.1008015,2.5 L26.4687672,2.5 L26.4687672,0.625 C26.4687672,0.3125 26.1729787,0 25.807048,0 L21.8367329,0 C21.471464,0 21.1750138,0.3125 21.1750138,0.625 L21.1750138,2.5 L10.5875069,2.5 L10.5875069,0.625 C10.5875069,0.3125 10.2917184,0 9.9257877,0 L5.95547262,0 C5.59020363,0 5.29375344,0.3125 5.29375344,0.625 L5.29375344,2.5 L0.66171918,2.5 C0.296450193,2.5 0,2.8125 0,3.125 L0,29.375 C0,29.75 0.296450193,30 0.66171918,30 L31.1008015,30 C31.4667322,30 31.7625206,29.75 31.7625206,29.375 L31.7625206,3.125 C31.7625206,2.8125 31.4667322,2.5 31.1008015,2.5 L31.1008015,2.5 Z" id="Fill-2449"></path>
                            <path d="M16.5429795,18.75 L22.4984521,18.75 L22.4984521,15 L16.5429795,15 L16.5429795,18.75 Z M16.5429795,23.75 L22.4984521,23.75 L22.4984521,20 L16.5429795,20 L16.5429795,23.75 Z M9.26406852,23.75 L15.2195411,23.75 L15.2195411,20 L9.26406852,20 L9.26406852,23.75 Z M9.26406852,18.75 L15.2195411,18.75 L15.2195411,15 L9.26406852,15 L9.26406852,18.75 Z M28.4539247,15 C28.8198554,15 29.1156439,14.75 29.1156439,14.375 C29.1156439,14.0625 28.8198554,13.75 28.4539247,13.75 L23.8218905,13.75 L23.8218905,11.875 C23.8218905,11.5625 23.526102,11.25 23.1601713,11.25 C22.7949023,11.25 22.4984521,11.5625 22.4984521,11.875 L22.4984521,13.75 L16.5429795,13.75 L16.5429795,11.875 C16.5429795,11.5625 16.247191,11.25 15.8812603,11.25 C15.5159913,11.25 15.2195411,11.5625 15.2195411,11.875 L15.2195411,13.75 L9.26406852,13.75 L9.26406852,11.875 C9.26406852,11.5625 8.96828005,11.25 8.60234934,11.25 C8.23708035,11.25 7.94063016,11.5625 7.94063016,11.875 L7.94063016,13.75 L3.3085959,13.75 C2.94332691,13.75 2.64687672,14.0625 2.64687672,14.375 C2.64687672,14.75 2.94332691,15 3.3085959,15 L7.94063016,15 L7.94063016,18.75 L3.3085959,18.75 C2.94332691,18.75 2.64687672,19.0625 2.64687672,19.375 C2.64687672,19.75 2.94332691,20 3.3085959,20 L7.94063016,20 L7.94063016,23.75 L3.3085959,23.75 C2.94332691,23.75 2.64687672,24.0625 2.64687672,24.375 C2.64687672,24.75 2.94332691,25 3.3085959,25 L7.94063016,25 L7.94063016,26.875 C7.94063016,27.25 8.23708035,27.5 8.60234934,27.5 C8.96828005,27.5 9.26406852,27.25 9.26406852,26.875 L9.26406852,25 L15.2195411,25 L15.2195411,26.875 C15.2195411,27.25 15.5159913,27.5 15.8812603,27.5 C16.247191,27.5 16.5429795,27.25 16.5429795,26.875 L16.5429795,25 L22.4984521,25 L22.4984521,26.875 C22.4984521,27.25 22.7949023,27.5 23.1601713,27.5 C23.526102,27.5 23.8218905,27.25 23.8218905,26.875 L23.8218905,25 L28.4539247,25 C28.8198554,25 29.1156439,24.75 29.1156439,24.375 C29.1156439,24.0625 28.8198554,23.75 28.4539247,23.75 L23.8218905,23.75 L23.8218905,20 L28.4539247,20 C28.8198554,20 29.1156439,19.75 29.1156439,19.375 C29.1156439,19.0625 28.8198554,18.75 28.4539247,18.75 L23.8218905,18.75 L23.8218905,15 L28.4539247,15 L28.4539247,15 Z" id="Fill-2450"></path>
                        </g>
                    </g>
                </g>
            </g>
        </g>
    </g>
</svg>
