<?xml version="1.0" encoding="UTF-8"?>
<svg width="47px" height="47px" viewBox="0 0 47 47" version="1.1" xmlns="http://www.w3.org/2000/svg" xmlns:xlink="http://www.w3.org/1999/xlink">
    <!-- Generator: Sketch 48.2 (47327) - http://www.bohemiancoding.com/sketch -->
    <title>Facebook</title>
    <desc>Created with Sketch.</desc>
    <defs></defs>
    <g id="Become-A-Nanny-Share-Host" stroke="none" stroke-width="1" fill="none" fill-rule="evenodd" transform="translate(-1141.000000, -3450.000000)">
        <g id="Footer-#1" transform="translate(0.000000, 3407.000000)">
            <g id="Social" transform="translate(1142.413315, 44.000000)">
                <g id="Facebook">
                    <ellipse id="Stroke" stroke="#4A4A4A" opacity="0.300000012" cx="22.4687933" cy="22.5" rx="22.4687933" ry="22.5"></ellipse>
                    <path d="M26.221266,17.0470412 C25.7608399,16.9124003 25.2313499,16.8226396 24.7479025,16.8226396 C24.1493486,16.8226396 22.8601555,17.2041223 22.8601555,17.9446476 L22.8601555,19.7174202 L25.921989,19.7174202 L25.921989,22.7019614 L22.8601555,22.7019614 L22.8601555,30.9375 L19.7753007,30.9375 L19.7753007,22.7019614 L18.2558946,22.7019614 L18.2558946,19.7174202 L19.7753007,19.7174202 L19.7753007,18.2139295 C19.7753007,15.9474734 20.8342807,14.0625 23.3896455,14.0625 C24.2644551,14.0625 25.8299038,14.1073803 26.6816921,14.3991024 L26.221266,17.0470412 Z" fill="#4A4A4A" opacity="0.699999988"></path>
                </g>
            </g>
        </g>
    </g>
</svg>