<?xml version="1.0" encoding="UTF-8"?>
<svg width="65px" height="24px" viewBox="0 0 65 24" version="1.1" xmlns="http://www.w3.org/2000/svg" xmlns:xlink="http://www.w3.org/1999/xlink">
    <!-- Generator: Sketch 48.2 (47327) - http://www.bohemiancoding.com/sketch -->
    <title>Group 20</title>
    <desc>Created with Sketch.</desc>
    <defs></defs>
    <g id="Become-A-Nanny-Share-Host" stroke="none" stroke-width="1" fill="none" fill-rule="evenodd" transform="translate(-123.000000, -3462.000000)">
        <g id="Footer-#1" transform="translate(0.000000, 3407.000000)" fill="#4A4A4A">
            <g id="Group-20" transform="translate(123.000000, 55.000000)">
                <path d="M51.7343368,6.55233516 C51.2373985,6.55233516 50.8345503,6.14892752 50.8345503,5.65129897 C50.8345503,5.15367043 51.2373985,4.75026279 51.7343368,4.75026279 C52.2312752,4.75026279 52.6341233,5.15367043 52.6341233,5.65129897 C52.6341233,6.14892752 52.2312752,6.55233516 51.7343368,6.55233516 Z M63.7914757,6.55233516 C63.2945374,6.55233516 62.8916892,6.14892752 62.8916892,5.65129897 C62.8916892,5.15367043 63.2945374,4.75026279 63.7914757,4.75026279 C64.2884141,4.75026279 64.6912622,5.15367043 64.6912622,5.65129897 C64.6912622,6.14892752 64.2884141,6.55233516 63.7914757,6.55233516 Z M0.828016644,0.893827899 C0.828016644,0.64393928 0.914395282,0.432498235 1.08715515,0.259498422 C1.25991502,0.0864986091 1.4710628,0 1.72060484,0 C1.97014687,0 2.18129465,0.0864986091 2.35405452,0.259498422 C2.52681439,0.432498235 2.61319303,0.64393928 2.61319303,0.893827899 L2.61319303,6.94879108 C3.24664588,6.23756963 4.00485838,5.67532867 4.88785326,5.26205134 C5.77084815,4.84877401 6.7306108,4.64213844 7.76717002,4.64213844 C8.72694706,4.64213844 9.62912396,4.82474662 10.4737278,5.18996845 C11.3183316,5.55519027 12.05255,6.05015454 12.6764051,6.67487608 C13.3002602,7.29959763 13.7945379,8.03483581 14.1592532,8.88061267 C14.5239685,9.72638954 14.7063234,10.6298195 14.7063234,11.5909295 L14.7063234,17.7612253 C14.7063234,18.011114 14.6199447,18.222555 14.4471849,18.3955548 C14.274425,18.5685546 14.0632772,18.6550532 13.8137352,18.6550532 C13.5641932,18.6550532 13.3530454,18.5685546 13.1802855,18.3955548 C13.0075256,18.222555 12.921147,18.011114 12.921147,17.7612253 L12.921147,11.5909295 C12.921147,10.8797081 12.7867802,10.2117466 12.5180427,9.58702504 C12.2493051,8.9623035 11.8797965,8.41447897 11.4095057,7.94353504 C10.939215,7.4725911 10.3921502,7.10256927 9.76829516,6.83345845 C9.14444008,6.56434763 8.47740503,6.42979424 7.76717002,6.42979424 C7.07613054,6.42979424 6.42349194,6.55954215 5.80923462,6.81904187 C5.19497731,7.07854159 4.65751023,7.42934151 4.19681724,7.87145214 C3.73612426,8.31356278 3.36181682,8.83735991 3.07388371,9.44285925 C2.7859506,10.0483586 2.63238857,10.6970982 2.61319303,11.3890974 L2.61319303,17.7612253 C2.61319303,18.011114 2.52681439,18.222555 2.35405452,18.3955548 C2.18129465,18.5685546 1.97014687,18.6550532 1.72060484,18.6550532 C1.4710628,18.6550532 1.25991502,18.5685546 1.08715515,18.3955548 C0.914395282,18.222555 0.828016644,18.011114 0.828016644,17.7612253 L0.828016644,11.3890974 L0.828016644,0.893827899 Z M24.2528581,4.6709716 C25.1742441,4.6709716 26.0524269,4.85838525 26.8874329,5.23321818 C27.722439,5.60805111 28.4566574,6.11262633 29.0901103,6.74695898 C29.7235631,7.38129163 30.2274385,8.12133528 30.6017516,8.96711215 C30.9760646,9.81288901 31.1632183,10.7163189 31.1632183,11.677429 L31.1632183,17.7612253 C31.1632183,18.011114 31.0768397,18.222555 30.9040798,18.3955548 C30.7313199,18.5685546 30.5201722,18.6550532 30.2706301,18.6550532 C30.0210881,18.6550532 29.8099403,18.5685546 29.6371804,18.3955548 C29.4644206,18.222555 29.3780419,18.011114 29.3780419,17.7612253 L29.3780419,16.0024027 C28.7445891,16.7136242 27.9815778,17.3239199 27.0889851,17.8333082 C26.1963925,18.3426966 25.231831,18.5973869 24.1952718,18.5973869 C23.2354947,18.5973869 22.3381167,18.4243897 21.5031106,18.0783901 C20.6681046,17.7323905 19.9338862,17.2518426 19.3004333,16.6367322 C18.6669805,16.0216217 18.1679039,15.291189 17.8031886,14.4454122 C17.4384733,13.5996353 17.2561184,12.6769835 17.2561184,11.677429 C17.2561184,10.7163189 17.4336745,9.81769449 17.788792,8.98152873 C18.1439095,8.14536296 18.6333885,7.41493026 19.2572436,6.79020872 C19.8810986,6.16548717 20.6201159,5.66571743 21.4743175,5.2908845 C22.328519,4.91605157 23.25469,4.709416 24.2528581,4.6709716 L24.2528581,4.6709716 Z M19.0412948,11.677429 C19.0412948,12.3886505 19.1756616,13.0566119 19.4443991,13.6813335 C19.7131367,14.306055 20.0826453,14.8538796 20.5529361,15.3248235 C21.0232268,15.7957674 21.5702916,16.1657893 22.1941466,16.4349001 C22.8180017,16.7040109 23.4850368,16.8385643 24.1952718,16.8385643 C24.8863113,16.8385643 25.5389499,16.7088164 26.1532072,16.4493167 C26.7674645,16.1898169 27.3097304,15.8294061 27.7800211,15.3680732 C28.2503119,14.9067404 28.6246193,14.3637213 28.9029547,13.7389998 C29.18129,13.1142783 29.3396509,12.4270949 29.3780419,11.677429 C29.3780419,10.9662075 29.2436752,10.2934406 28.9749376,9.65910794 C28.7062,9.02477529 28.3366914,8.47214529 27.8664006,8.00120135 C27.3961099,7.53025742 26.8442464,7.16023559 26.2107935,6.89112477 C25.5773407,6.62201395 24.9055068,6.48746056 24.1952718,6.48746056 C23.4850368,6.48746056 22.8180017,6.62201395 22.1941466,6.89112477 C21.5702916,7.16023559 21.0232268,7.53025742 20.5529361,8.00120135 C20.0826453,8.47214529 19.7131367,9.02477529 19.4443991,9.65910794 C19.1756616,10.2934406 19.0412948,10.9662075 19.0412948,11.677429 L19.0412948,11.677429 Z M41.3719959,18.6262201 C40.2970456,18.5877757 39.3180877,18.3138634 38.4350928,17.8044751 C37.5520979,17.2950867 36.7938854,16.694402 36.1604326,16.0024027 L36.1604326,22.9511938 C36.1604326,23.2010824 36.0740539,23.4125235 35.9012941,23.5855233 C35.7285342,23.7585231 35.5173864,23.8450217 35.2678444,23.8450217 C35.0183024,23.8450217 34.8071546,23.7585231 34.6343947,23.5855233 C34.4616348,23.4125235 34.3752562,23.2010824 34.3752562,22.9511938 L34.3752562,11.6197627 C34.3752562,10.6202082 34.5576111,9.69755638 34.9223264,8.85177951 C35.2870417,8.00600265 35.7861182,7.27556995 36.4195711,6.6604595 C37.0530239,6.04534906 37.7872424,5.56480123 38.6222484,5.2188016 C39.4572544,4.87280198 40.3546325,4.69980476 41.3144096,4.69980476 C42.2933822,4.69980476 43.2051567,4.88241293 44.0497605,5.24763476 C44.8943643,5.61285659 45.6285827,6.11262633 46.2524378,6.74695898 C46.8762929,7.38129163 47.3705706,8.1165298 47.7352859,8.95269557 C48.1000012,9.78886133 48.2823561,10.6778748 48.2823561,11.6197627 C48.2823561,12.5808728 48.0952024,13.4843027 47.7208893,14.3300795 C47.3465763,15.1758564 46.8427009,15.9159001 46.209248,16.5502327 C45.5757952,17.1845654 44.8415768,17.6891406 44.0065707,18.0639735 C43.1715647,18.4388064 42.2933819,18.6262201 41.3719959,18.6262201 L41.3719959,18.6262201 Z M36.1604326,11.6197627 C36.1796281,12.3694285 36.3331901,13.0614174 36.6211233,13.6957501 C36.9090564,14.3300827 37.2833638,14.8779072 37.7440568,15.3392401 C38.2047498,15.8005729 38.7422169,16.1609838 39.3564742,16.4204835 C39.9707315,16.6799832 40.6233701,16.8097311 41.3144096,16.8097311 C42.0246446,16.8097311 42.6964784,16.6751777 43.3299313,16.4060669 C43.9633841,16.1369561 44.5152477,15.7669343 44.9855384,15.2959903 C45.4558292,14.8250464 45.8253378,14.2724164 46.0940754,13.6380837 C46.3628129,13.0037511 46.4971797,12.3309841 46.4971797,11.6197627 C46.4971797,10.9085412 46.3628129,10.2405798 46.0940754,9.6158582 C45.8253378,8.99113665 45.4558292,8.44331213 44.9855384,7.97236819 C44.5152477,7.50142426 43.9633841,7.13140243 43.3299313,6.86229161 C42.6964784,6.59318079 42.0246446,6.4586274 41.3144096,6.4586274 C40.6041746,6.4586274 39.9371395,6.59318079 39.3132844,6.86229161 C38.6894293,7.13140243 38.1423646,7.50142426 37.6720739,7.97236819 C37.2017831,8.44331213 36.8322745,8.99113665 36.5635369,9.6158582 C36.2947994,10.2405798 36.1604326,10.9085412 36.1604326,11.6197627 L36.1604326,11.6197627 Z M50.8609443,9.11127794 C50.8609443,8.86138932 50.9473229,8.64994827 51.1200828,8.47694846 C51.2928427,8.30394865 51.5039905,8.21745004 51.7535325,8.21745004 C52.0030745,8.21745004 52.2142223,8.30394865 52.3869822,8.47694846 C52.559742,8.64994827 52.6461207,8.86138932 52.6461207,9.11127794 L52.6461207,11.677429 C52.6461207,12.3886505 52.7804875,13.0566119 53.049225,13.6813335 C53.3179626,14.306055 53.6874712,14.8538796 54.157762,15.3248235 C54.6280527,15.7957674 55.1751174,16.1657893 55.7989725,16.4349001 C56.4228276,16.7040109 57.0898627,16.8385643 57.8000977,16.8385643 C58.5103327,16.8385643 59.1773677,16.7040109 59.8012228,16.4349001 C60.4250779,16.1657893 60.9721426,15.7957674 61.4424334,15.3248235 C61.9127241,14.8538796 62.2822327,14.306055 62.5509703,13.6813335 C62.8197079,13.0566119 62.9540747,12.3886505 62.9540747,11.677429 L62.9540747,9.11127794 C62.9540747,8.86138932 63.0404533,8.64994827 63.2132132,8.47694846 C63.385973,8.30394865 63.5971208,8.21745004 63.8466628,8.21745004 C64.0962049,8.21745004 64.3073527,8.30394865 64.4801125,8.47694846 C64.6528724,8.64994827 64.739251,8.86138932 64.739251,9.11127794 L64.739251,11.677429 C64.739251,12.6385391 64.5568961,13.541969 64.1921809,14.3877459 C63.8274656,15.2335227 63.3331878,15.9687609 62.7093327,16.5934824 C62.0854776,17.218204 61.3512592,17.7131683 60.5066554,18.0783901 C59.6620516,18.4436119 58.7598747,18.6262201 57.8000977,18.6262201 C56.8403206,18.6262201 55.9381437,18.4436119 55.0935399,18.0783901 C54.2489361,17.7131683 53.5147177,17.218204 52.8908626,16.5934824 C52.2670075,15.9687609 51.7727298,15.2335227 51.4080145,14.3877459 C51.0432992,13.541969 50.8609443,12.6385391 50.8609443,11.677429 L50.8609443,9.11127794 Z" id="Oval-1"></path>
            </g>
        </g>
    </g>
</svg>