<?xml version="1.0" encoding="UTF-8"?>
<svg width="47px" height="47px" viewBox="0 0 47 47" version="1.1" xmlns="http://www.w3.org/2000/svg" xmlns:xlink="http://www.w3.org/1999/xlink">
    <!-- Generator: Sketch 48.2 (47327) - http://www.bohemiancoding.com/sketch -->
    <title>Instagram</title>
    <desc>Created with Sketch.</desc>
    <defs></defs>
    <g id="Become-A-Nanny-Share-Host" stroke="none" stroke-width="1" fill="none" fill-rule="evenodd" transform="translate(-1271.000000, -3450.000000)">
        <g id="Footer-#1" transform="translate(0.000000, 3407.000000)">
            <g id="Social" transform="translate(1140.413315, 43.000000)">
                <g id="Instagram" transform="translate(131.819695, 1.000000)">
                    <ellipse id="Stroke" stroke="#4A4A4A" opacity="0.300000012" cx="22.4687933" cy="22.5" rx="22.4687933" ry="22.5"></ellipse>
                    <path d="M28.7095007,14.0625 L14.8237864,14.0625 C14.0149098,14.0625 13.340846,14.7375 13.340846,15.5475 L13.340846,19.681875 L18.9524272,19.681875 C19.7950069,19.074375 20.6881415,18.55125 21.7666436,18.55125 C22.8114424,18.55125 23.7551318,19.074375 24.5808599,19.681875 L30.1924411,19.681875 L30.1924411,15.5475 C30.1924411,14.7375 29.5183773,14.0625 28.7095007,14.0625 L28.7095007,14.0625 Z M29.0633842,17.9775 C29.0633842,18.298125 28.8106103,18.568125 28.49043,18.568125 L26.282871,18.568125 C25.9626907,18.568125 25.6930652,18.298125 25.6930652,17.9775 L25.6930652,15.766875 C25.6930652,15.44625 25.9626907,15.193125 26.282871,15.193125 L28.49043,15.193125 C28.8106103,15.193125 29.0633842,15.44625 29.0633842,15.766875 L29.0633842,17.9775 Z M24.5808599,23.056875 C24.5808599,21.504375 23.3169903,20.255625 21.7666436,20.255625 C20.2162968,20.255625 18.9524272,21.504375 18.9524272,23.056875 C18.9524272,24.609375 20.2162968,25.875 21.7666436,25.875 C23.3169903,25.875 24.5808599,24.609375 24.5808599,23.056875 L24.5808599,23.056875 Z M26.0638003,21.943125 C26.1649098,22.280625 26.198613,22.635 26.198613,22.989375 C26.198613,25.453125 24.2101248,27.444375 21.7666436,27.444375 C19.3231623,27.444375 17.3346741,25.453125 17.3346741,22.989375 C17.3346741,22.635 17.3683773,22.280625 17.4694868,21.943125 L13.340846,21.943125 L13.340846,29.4525 C13.340846,30.2625 14.0149098,30.9375 14.8237864,30.9375 L28.7095007,30.9375 C29.5183773,30.9375 30.1924411,30.2625 30.1924411,29.4525 L30.1924411,21.943125 L26.0638003,21.943125 Z" fill="#4A4A4A" opacity="0.699999988"></path>
                </g>
            </g>
        </g>
    </g>
</svg>