<?xml version="1.0" encoding="UTF-8"?>
<svg width="47px" height="47px" viewBox="0 0 47 47" version="1.1" xmlns="http://www.w3.org/2000/svg" xmlns:xlink="http://www.w3.org/1999/xlink">
    <!-- Generator: Sketch 48.2 (47327) - http://www.bohemiancoding.com/sketch -->
    <title>Twitter</title>
    <desc>Created with Sketch.</desc>
    <defs></defs>
    <g id="Become-A-Nanny-Share-Host" stroke="none" stroke-width="1" fill="none" fill-rule="evenodd" transform="translate(-1206.000000, -3450.000000)">
        <g id="Footer-#1" transform="translate(0.000000, 3407.000000)">
            <g id="Social" transform="translate(1140.413315, 43.000000)">
                <g id="Twitter" transform="translate(66.909847, 1.000000)">
                    <ellipse id="Stroke" stroke="#4A4A4A" opacity="0.300000012" cx="22.4687933" cy="22.5" rx="22.4687933" ry="22.5"></ellipse>
                    <path d="M27.1571636,18.8537228 C27.1571636,18.8537228 27.1571636,18.7123855 27.1571636,18.8537228 C26.4384276,18.1470361 25.5759444,17.8643614 24.7134612,18.0056987 L24.7134612,18.0056987 L24.7134612,18.0056987 C25.5759444,17.8643614 26.007186,17.5816867 26.1509332,17.4403494 C26.1509332,17.299012 26.1509332,17.1576747 26.007186,17.1576747 C25.5759444,17.1576747 25.1447028,17.299012 24.8572084,17.4403494 C25.28845,17.1576747 25.4321972,17.0163373 25.4321972,16.875 C25.0009556,16.875 24.569714,17.1576747 23.9947252,17.5816867 C24.1384724,17.299012 24.2822196,17.1576747 24.1384724,17.0163373 C23.850978,17.1576747 23.7072308,17.299012 23.5634836,17.5816867 C23.132242,18.0056987 22.8447476,18.2883734 22.7010004,18.7123855 L22.7010004,18.7123855 C22.1260116,19.7017469 21.6947699,20.5497709 21.4072755,21.5391323 L21.2635283,21.5391323 C20.9760339,21.1151203 20.5447923,20.6911083 19.9698035,20.4084336 C19.3948147,19.9844216 18.6760787,19.7017469 17.8135955,19.2777348 C16.9511123,18.8537228 16.0886291,18.4297108 15.0823987,18.1470361 C15.0823987,19.1363975 15.5136403,19.9844216 16.5198707,20.5497709 L16.5198707,20.5497709 C16.2323763,20.5497709 15.8011347,20.5497709 15.5136403,20.6911083 C15.5136403,21.5391323 16.2323763,22.2458191 17.5261011,22.5284937 L17.5261011,22.5284937 C17.0948595,22.5284937 16.6636179,22.6698311 16.2323763,22.9525058 C16.6636179,23.8005298 17.3823539,24.0832045 18.5323315,24.0832045 C18.3885843,24.2245419 18.1010899,24.3658792 18.1010899,24.3658792 C17.9573427,24.5072166 17.8135955,24.7898912 17.9573427,25.0725659 C18.2448371,25.496578 18.5323315,25.6379153 19.2510675,25.6379153 L19.2510675,25.6379153 L19.2510675,25.6379153 C18.2448371,26.6272767 16.9511123,27.1926261 15.5136403,27.0512887 L15.5136403,27.0512887 C14.6511571,27.0512887 13.6449267,26.6272767 12.6386963,25.7792526 C13.6449267,27.1926261 15.0823987,28.3233248 16.8073651,29.0300116 C18.8198259,29.5953609 20.8322867,29.7366983 22.7010004,29.1713489 L22.7010004,29.1713489 C24.569714,28.6059995 26.2946804,27.4753008 27.5884052,25.92059 C28.163394,25.0725659 28.5946356,24.2245419 28.7383828,23.3765178 C29.7446132,23.3765178 30.4633492,23.0938431 30.8945908,22.5284937 L30.8945908,22.5284937 C30.6070964,22.6698311 29.8883604,22.6698311 28.88213,22.3871564 L28.88213,22.3871564 L28.88213,22.3871564 C29.8883604,22.2458191 30.6070964,21.9631444 30.7508436,21.397795 C30.0321076,21.6804697 29.3133716,21.6804697 28.5946356,21.397795 C28.4508884,20.4084336 28.0196468,19.5604095 27.1571636,18.8537228 L27.1571636,18.8537228 Z" fill="#4A4A4A" opacity="0.699999988"></path>
                </g>
            </g>
        </g>
    </g>
</svg>